<?xml version="1.0" encoding="UTF-8"?>
<svg xmlns="http://www.w3.org/2000/svg" width="1000" height="1000" viewBox="0 0 1000 1000">
  <path d="M -50.00,142.86 L -36.25,152.19 L -22.50,161.02 L -8.75,168.84 L 5.00,175.22 L 18.75,179.81 L 32.50,182.36 L 46.25,182.73 L 60.00,180.90 L 73.75,176.96 L 87.50,171.14 L 101.25,163.76 L 115.00,155.22 L 128.75,146.00 L 142.50,136.60 L 156.25,127.55 L 170.00,119.35 L 183.75,112.44 L 197.50,107.22 L 211.25,103.96 L 225.00,102.86 L 238.75,103.96 L 252.50,107.22 L 266.25,112.44 L 280.00,119.35 L 293.75,127.55 L 307.50,136.60 L 321.25,146.00 L 335.00,155.22 L 348.75,163.76 L 362.50,171.14 L 376.25,176.96 L 390.00,180.90 L 403.75,182.73 L 417.50,182.36 L 431.25,179.81 L 445.00,175.22 L 458.75,168.84 L 472.50,161.02 L 486.25,152.19 L 500.00,142.86 L 513.75,133.52 L 527.50,124.70 L 541.25,116.88 L 555.00,110.50 L 568.75,105.90 L 582.50,103.35 L 596.25,102.98 L 610.00,104.81 L 623.75,108.75 L 637.50,114.57 L 651.25,121.96 L 665.00,130.50 L 678.75,139.72 L 692.50,149.11 L 706.25,158.16 L 720.00,166.37 L 733.75,173.27 L 747.50,178.50 L 761.25,181.75 L 775.00,182.86 L 788.75,181.75 L 802.50,178.50 L 816.25,173.27 L 830.00,166.37 L 843.75,158.16 L 857.50,149.11 L 871.25,139.72 L 885.00,130.50 L 898.75,121.96 L 912.50,114.57 L 926.25,108.75 L 940.00,104.81 L 953.75,102.98 L 967.50,103.35 L 981.25,105.90 L 995.00,110.50 L 1008.75,116.88 L 1022.50,124.70 L 1036.25,133.52 L 1050.00,142.86" fill="none" stroke="black" stroke-width="1.5" stroke-linecap="round" stroke-linejoin="round"/>
  <path d="M -50.00,285.71 L -36.25,297.39 L -22.50,308.41 L -8.75,318.19 L 5.00,326.17 L 18.75,331.91 L 32.50,335.10 L 46.25,335.56 L 60.00,333.27 L 73.75,328.35 L 87.50,321.07 L 101.25,311.84 L 115.00,301.17 L 128.75,289.64 L 142.50,277.89 L 156.25,266.58 L 170.00,256.33 L 183.75,247.69 L 197.50,241.16 L 211.25,237.10 L 225.00,235.71 L 238.75,237.10 L 252.50,241.16 L 266.25,247.69 L 280.00,256.33 L 293.75,266.58 L 307.50,277.89 L 321.25,289.64 L 335.00,301.17 L 348.75,311.84 L 362.50,321.07 L 376.25,328.35 L 390.00,333.27 L 403.75,335.56 L 417.50,335.10 L 431.25,331.91 L 445.00,326.17 L 458.75,318.19 L 472.50,308.41 L 486.25,297.39 L 500.00,285.71 L 513.75,274.04 L 527.50,263.01 L 541.25,253.24 L 555.00,245.26 L 568.75,239.52 L 582.50,236.33 L 596.25,235.87 L 610.00,238.16 L 623.75,243.08 L 637.50,250.36 L 651.25,259.59 L 665.00,270.26 L 678.75,281.79 L 692.50,293.54 L 706.25,304.85 L 720.00,315.10 L 733.75,323.73 L 747.50,330.26 L 761.25,334.33 L 775.00,335.71 L 788.75,334.33 L 802.50,330.26 L 816.25,323.73 L 830.00,315.10 L 843.75,304.85 L 857.50,293.54 L 871.25,281.79 L 885.00,270.26 L 898.75,259.59 L 912.50,250.36 L 926.25,243.08 L 940.00,238.16 L 953.75,235.87 L 967.50,236.33 L 981.25,239.52 L 995.00,245.26 L 1008.75,253.24 L 1022.50,263.01 L 1036.25,274.04 L 1050.00,285.71" fill="none" stroke="black" stroke-width="1.5" stroke-linecap="round" stroke-linejoin="round"/>
  <path d="M -50.00,428.57 L -36.25,437.91 L -22.50,446.73 L -8.75,454.55 L 5.00,460.93 L 18.75,465.53 L 32.50,468.08 L 46.25,468.45 L 60.00,466.61 L 73.75,462.68 L 87.50,456.86 L 101.25,449.47 L 115.00,440.93 L 128.75,431.71 L 142.50,422.31 L 156.25,413.26 L 170.00,405.06 L 183.75,398.16 L 197.50,392.93 L 211.25,389.68 L 225.00,388.57 L 238.75,389.68 L 252.50,392.93 L 266.25,398.16 L 280.00,405.06 L 293.75,413.26 L 307.50,422.31 L 321.25,431.71 L 335.00,440.93 L 348.75,449.47 L 362.50,456.86 L 376.25,462.68 L 390.00,466.61 L 403.75,468.45 L 417.50,468.08 L 431.25,465.53 L 445.00,460.93 L 458.75,454.55 L 472.50,446.73 L 486.25,437.91 L 500.00,428.57 L 513.75,419.23 L 527.50,410.41 L 541.25,402.59 L 555.00,396.21 L 568.75,391.62 L 582.50,389.06 L 596.25,388.69 L 610.00,390.53 L 623.75,394.47 L 637.50,400.29 L 651.25,407.67 L 665.00,416.21 L 678.75,425.43 L 692.50,434.83 L 706.25,443.88 L 720.00,452.08 L 733.75,458.99 L 747.50,464.21 L 761.25,467.47 L 775.00,468.57 L 788.75,467.47 L 802.50,464.21 L 816.25,458.99 L 830.00,452.08 L 843.75,443.88 L 857.50,434.83 L 871.25,425.43 L 885.00,416.21 L 898.75,407.67 L 912.50,400.29 L 926.25,394.47 L 940.00,390.53 L 953.75,388.69 L 967.50,389.06 L 981.25,391.62 L 995.00,396.21 L 1008.75,402.59 L 1022.50,410.41 L 1036.25,419.23 L 1050.00,428.57" fill="none" stroke="black" stroke-width="1.5" stroke-linecap="round" stroke-linejoin="round"/>
  <path d="M -50.00,571.43 L -36.25,583.10 L -22.50,594.13 L -8.75,603.90 L 5.00,611.88 L 18.75,617.62 L 32.50,620.81 L 46.25,621.27 L 60.00,618.98 L 73.75,614.06 L 87.50,606.78 L 101.25,597.55 L 115.00,586.88 L 128.75,575.35 L 142.50,563.61 L 156.25,552.29 L 170.00,542.04 L 183.75,533.41 L 197.50,526.88 L 211.25,522.81 L 225.00,521.43 L 238.75,522.81 L 252.50,526.88 L 266.25,533.41 L 280.00,542.04 L 293.75,552.29 L 307.50,563.61 L 321.25,575.35 L 335.00,586.88 L 348.75,597.55 L 362.50,606.78 L 376.25,614.06 L 390.00,618.98 L 403.75,621.27 L 417.50,620.81 L 431.25,617.62 L 445.00,611.88 L 458.75,603.90 L 472.50,594.13 L 486.25,583.10 L 500.00,571.43 L 513.75,559.76 L 527.50,548.73 L 541.25,538.96 L 555.00,530.98 L 568.75,525.23 L 582.50,522.04 L 596.25,521.58 L 610.00,523.88 L 623.75,528.80 L 637.50,536.07 L 651.25,545.30 L 665.00,555.98 L 678.75,567.51 L 692.50,579.25 L 706.25,590.56 L 720.00,600.82 L 733.75,609.45 L 747.50,615.98 L 761.25,620.05 L 775.00,621.43 L 788.75,620.05 L 802.50,615.98 L 816.25,609.45 L 830.00,600.82 L 843.75,590.56 L 857.50,579.25 L 871.25,567.51 L 885.00,555.98 L 898.75,545.30 L 912.50,536.07 L 926.25,528.80 L 940.00,523.88 L 953.75,521.58 L 967.50,522.04 L 981.25,525.23 L 995.00,530.98 L 1008.75,538.96 L 1022.50,548.73 L 1036.25,559.76 L 1050.00,571.43" fill="none" stroke="black" stroke-width="1.5" stroke-linecap="round" stroke-linejoin="round"/>
  <path d="M -50.00,714.29 L -36.25,723.62 L -22.50,732.45 L -8.75,740.26 L 5.00,746.65 L 18.75,751.24 L 32.50,753.79 L 46.25,754.16 L 60.00,752.33 L 73.75,748.39 L 87.50,742.57 L 101.25,735.19 L 115.00,726.65 L 128.75,717.42 L 142.50,708.03 L 156.25,698.98 L 170.00,690.77 L 183.75,683.87 L 197.50,678.65 L 211.25,675.39 L 225.00,674.29 L 238.75,675.39 L 252.50,678.65 L 266.25,683.87 L 280.00,690.77 L 293.75,698.98 L 307.50,708.03 L 321.25,717.42 L 335.00,726.65 L 348.75,735.19 L 362.50,742.57 L 376.25,748.39 L 390.00,752.33 L 403.75,754.16 L 417.50,753.79 L 431.25,751.24 L 445.00,746.65 L 458.75,740.26 L 472.50,732.45 L 486.25,723.62 L 500.00,714.29 L 513.75,704.95 L 527.50,696.13 L 541.25,688.31 L 555.00,681.93 L 568.75,677.33 L 582.50,674.78 L 596.25,674.41 L 610.00,676.24 L 623.75,680.18 L 637.50,686.00 L 651.25,693.39 L 665.00,701.93 L 678.75,711.15 L 692.50,720.54 L 706.25,729.59 L 720.00,737.80 L 733.75,744.70 L 747.50,749.93 L 761.25,753.18 L 775.00,754.29 L 788.75,753.18 L 802.50,749.93 L 816.25,744.70 L 830.00,737.80 L 843.75,729.59 L 857.50,720.54 L 871.25,711.15 L 885.00,701.93 L 898.75,693.39 L 912.50,686.00 L 926.25,680.18 L 940.00,676.24 L 953.75,674.41 L 967.50,674.78 L 981.25,677.33 L 995.00,681.93 L 1008.75,688.31 L 1022.50,696.13 L 1036.25,704.95 L 1050.00,714.29" fill="none" stroke="black" stroke-width="1.5" stroke-linecap="round" stroke-linejoin="round"/>
  <path d="M -50.00,857.14 L -36.25,868.82 L -22.50,879.84 L -8.75,889.62 L 5.00,897.59 L 18.75,903.34 L 32.50,906.53 L 46.25,906.99 L 60.00,904.70 L 73.75,899.77 L 87.50,892.50 L 101.25,883.27 L 115.00,872.59 L 128.75,861.07 L 142.50,849.32 L 156.25,838.01 L 170.00,827.75 L 183.75,819.12 L 197.50,812.59 L 211.25,808.52 L 225.00,807.14 L 238.75,808.52 L 252.50,812.59 L 266.25,819.12 L 280.00,827.75 L 293.75,838.01 L 307.50,849.32 L 321.25,861.07 L 335.00,872.59 L 348.75,883.27 L 362.50,892.50 L 376.25,899.77 L 390.00,904.70 L 403.75,906.99 L 417.50,906.53 L 431.25,903.34 L 445.00,897.59 L 458.75,889.62 L 472.50,879.84 L 486.25,868.82 L 500.00,857.14 L 513.75,845.47 L 527.50,834.44 L 541.25,824.67 L 555.00,816.69 L 568.75,810.95 L 582.50,807.76 L 596.25,807.30 L 610.00,809.59 L 623.75,814.51 L 637.50,821.79 L 651.25,831.02 L 665.00,841.69 L 678.75,853.22 L 692.50,864.96 L 706.25,876.28 L 720.00,886.53 L 733.75,895.16 L 747.50,901.69 L 761.25,905.76 L 775.00,907.14 L 788.75,905.76 L 802.50,901.69 L 816.25,895.16 L 830.00,886.53 L 843.75,876.28 L 857.50,864.96 L 871.25,853.22 L 885.00,841.69 L 898.75,831.02 L 912.50,821.79 L 926.25,814.51 L 940.00,809.59 L 953.75,807.30 L 967.50,807.76 L 981.25,810.95 L 995.00,816.69 L 1008.75,824.67 L 1022.50,834.44 L 1036.25,845.47 L 1050.00,857.14" fill="none" stroke="black" stroke-width="1.5" stroke-linecap="round" stroke-linejoin="round"/>
  <path d="M 166.67,-50.00 L 156.16,-36.25 L 146.24,-22.50 L 137.44,-8.75 L 130.26,5.00 L 125.09,18.75 L 122.22,32.50 L 121.81,46.25 L 123.87,60.00 L 128.30,73.75 L 134.85,87.50 L 143.15,101.25 L 152.76,115.00 L 163.14,128.75 L 173.71,142.50 L 183.89,156.25 L 193.12,170.00 L 200.88,183.75 L 206.76,197.50 L 210.42,211.25 L 211.67,225.00 L 210.42,238.75 L 206.76,252.50 L 200.88,266.25 L 193.12,280.00 L 183.89,293.75 L 173.71,307.50 L 163.14,321.25 L 152.76,335.00 L 143.15,348.75 L 134.85,362.50 L 128.30,376.25 L 123.87,390.00 L 121.81,403.75 L 122.22,417.50 L 125.09,431.25 L 130.26,445.00 L 137.44,458.75 L 146.24,472.50 L 156.16,486.25 L 166.67,500.00 L 177.17,513.75 L 187.10,527.50 L 195.89,541.25 L 203.07,555.00 L 208.24,568.75 L 211.11,582.50 L 211.53,596.25 L 209.46,610.00 L 205.04,623.75 L 198.49,637.50 L 190.18,651.25 L 180.57,665.00 L 170.20,678.75 L 159.63,692.50 L 149.45,706.25 L 140.22,720.00 L 132.45,733.75 L 126.57,747.50 L 122.91,761.25 L 121.67,775.00 L 122.91,788.75 L 126.57,802.50 L 132.45,816.25 L 140.22,830.00 L 149.45,843.75 L 159.63,857.50 L 170.20,871.25 L 180.57,885.00 L 190.18,898.75 L 198.49,912.50 L 205.04,926.25 L 209.46,940.00 L 211.53,953.75 L 211.11,967.50 L 208.24,981.25 L 203.07,995.00 L 195.89,1008.75 L 187.10,1022.50 L 177.17,1036.25 L 166.67,1050.00" fill="none" stroke="black" stroke-width="1.5" stroke-linecap="round" stroke-linejoin="round"/>
  <path d="M 333.33,-50.00 L 320.49,-36.25 L 308.36,-22.50 L 297.61,-8.75 L 288.84,5.00 L 282.52,18.75 L 279.01,32.50 L 278.50,46.25 L 281.03,60.00 L 286.44,73.75 L 294.44,87.50 L 304.60,101.25 L 316.34,115.00 L 329.02,128.75 L 341.94,142.50 L 354.38,156.25 L 365.66,170.00 L 375.16,183.75 L 382.34,197.50 L 386.81,211.25 L 388.33,225.00 L 386.81,238.75 L 382.34,252.50 L 375.16,266.25 L 365.66,280.00 L 354.38,293.75 L 341.94,307.50 L 329.02,321.25 L 316.34,335.00 L 304.60,348.75 L 294.44,362.50 L 286.44,376.25 L 281.03,390.00 L 278.50,403.75 L 279.01,417.50 L 282.52,431.25 L 288.84,445.00 L 297.61,458.75 L 308.36,472.50 L 320.49,486.25 L 333.33,500.00 L 346.17,513.75 L 358.30,527.50 L 369.05,541.25 L 377.83,555.00 L 384.15,568.75 L 387.66,582.50 L 388.16,596.25 L 385.64,610.00 L 380.23,623.75 L 372.22,637.50 L 362.07,651.25 L 350.33,665.00 L 337.65,678.75 L 324.73,692.50 L 312.29,706.25 L 301.01,720.00 L 291.51,733.75 L 284.33,747.50 L 279.85,761.25 L 278.33,775.00 L 279.85,788.75 L 284.33,802.50 L 291.51,816.25 L 301.01,830.00 L 312.29,843.75 L 324.73,857.50 L 337.65,871.25 L 350.33,885.00 L 362.07,898.75 L 372.22,912.50 L 380.23,926.25 L 385.64,940.00 L 388.16,953.75 L 387.66,967.50 L 384.15,981.25 L 377.83,995.00 L 369.05,1008.75 L 358.30,1022.50 L 346.17,1036.25 L 333.33,1050.00" fill="none" stroke="black" stroke-width="1.5" stroke-linecap="round" stroke-linejoin="round"/>
  <path d="M 500.00,-50.00 L 489.49,-36.25 L 479.57,-22.50 L 470.77,-8.75 L 463.59,5.00 L 458.43,18.75 L 455.55,32.50 L 455.14,46.25 L 457.20,60.00 L 461.63,73.75 L 468.18,87.50 L 476.49,101.25 L 486.09,115.00 L 496.47,128.75 L 507.04,142.50 L 517.22,156.25 L 526.45,170.00 L 534.22,183.75 L 540.10,197.50 L 543.76,211.25 L 545.00,225.00 L 543.76,238.75 L 540.10,252.50 L 534.22,266.25 L 526.45,280.00 L 517.22,293.75 L 507.04,307.50 L 496.47,321.25 L 486.09,335.00 L 476.49,348.75 L 468.18,362.50 L 461.63,376.25 L 457.20,390.00 L 455.14,403.75 L 455.55,417.50 L 458.43,431.25 L 463.59,445.00 L 470.77,458.75 L 479.57,472.50 L 489.49,486.25 L 500.00,500.00 L 510.51,513.75 L 520.43,527.50 L 529.23,541.25 L 536.41,555.00 L 541.57,568.75 L 544.45,582.50 L 544.86,596.25 L 542.80,610.00 L 538.37,623.75 L 531.82,637.50 L 523.51,651.25 L 513.91,665.00 L 503.53,678.75 L 492.96,692.50 L 482.78,706.25 L 473.55,720.00 L 465.78,733.75 L 459.90,747.50 L 456.24,761.25 L 455.00,775.00 L 456.24,788.75 L 459.90,802.50 L 465.78,816.25 L 473.55,830.00 L 482.78,843.75 L 492.96,857.50 L 503.53,871.25 L 513.91,885.00 L 523.51,898.75 L 531.82,912.50 L 538.37,926.25 L 542.80,940.00 L 544.86,953.75 L 544.45,967.50 L 541.57,981.25 L 536.41,995.00 L 529.23,1008.75 L 520.43,1022.50 L 510.51,1036.25 L 500.00,1050.00" fill="none" stroke="black" stroke-width="1.5" stroke-linecap="round" stroke-linejoin="round"/>
  <path d="M 666.67,-50.00 L 653.83,-36.25 L 641.70,-22.50 L 630.95,-8.75 L 622.17,5.00 L 615.85,18.75 L 612.34,32.50 L 611.84,46.25 L 614.36,60.00 L 619.77,73.75 L 627.78,87.50 L 637.93,101.25 L 649.67,115.00 L 662.35,128.75 L 675.27,142.50 L 687.71,156.25 L 698.99,170.00 L 708.49,183.75 L 715.67,197.50 L 720.15,211.25 L 721.67,225.00 L 720.15,238.75 L 715.67,252.50 L 708.49,266.25 L 698.99,280.00 L 687.71,293.75 L 675.27,307.50 L 662.35,321.25 L 649.67,335.00 L 637.93,348.75 L 627.78,362.50 L 619.77,376.25 L 614.36,390.00 L 611.84,403.75 L 612.34,417.50 L 615.85,431.25 L 622.17,445.00 L 630.95,458.75 L 641.70,472.50 L 653.83,486.25 L 666.67,500.00 L 679.51,513.75 L 691.64,527.50 L 702.39,541.25 L 711.16,555.00 L 717.48,568.75 L 720.99,582.50 L 721.50,596.25 L 718.97,610.00 L 713.56,623.75 L 705.56,637.50 L 695.40,651.25 L 683.66,665.00 L 670.98,678.75 L 658.06,692.50 L 645.62,706.25 L 634.34,720.00 L 624.84,733.75 L 617.66,747.50 L 613.19,761.25 L 611.67,775.00 L 613.19,788.75 L 617.66,802.50 L 624.84,816.25 L 634.34,830.00 L 645.62,843.75 L 658.06,857.50 L 670.98,871.25 L 683.66,885.00 L 695.40,898.75 L 705.56,912.50 L 713.56,926.25 L 718.97,940.00 L 721.50,953.75 L 720.99,967.50 L 717.48,981.25 L 711.16,995.00 L 702.39,1008.75 L 691.64,1022.50 L 679.51,1036.25 L 666.67,1050.00" fill="none" stroke="black" stroke-width="1.5" stroke-linecap="round" stroke-linejoin="round"/>
  <path d="M 833.33,-50.00 L 822.83,-36.25 L 812.90,-22.50 L 804.11,-8.75 L 796.93,5.00 L 791.76,18.75 L 788.89,32.50 L 788.47,46.25 L 790.54,60.00 L 794.96,73.75 L 801.51,87.50 L 809.82,101.25 L 819.43,115.00 L 829.80,128.75 L 840.37,142.50 L 850.55,156.25 L 859.78,170.00 L 867.55,183.75 L 873.43,197.50 L 877.09,211.25 L 878.33,225.00 L 877.09,238.75 L 873.43,252.50 L 867.55,266.25 L 859.78,280.00 L 850.55,293.75 L 840.37,307.50 L 829.80,321.25 L 819.43,335.00 L 809.82,348.75 L 801.51,362.50 L 794.96,376.25 L 790.54,390.00 L 788.47,403.75 L 788.89,417.50 L 791.76,431.25 L 796.93,445.00 L 804.11,458.75 L 812.90,472.50 L 822.83,486.25 L 833.33,500.00 L 843.84,513.75 L 853.76,527.50 L 862.56,541.25 L 869.74,555.00 L 874.91,568.75 L 877.78,582.50 L 878.19,596.25 L 876.13,610.00 L 871.70,623.75 L 865.15,637.50 L 856.85,651.25 L 847.24,665.00 L 836.86,678.75 L 826.29,692.50 L 816.11,706.25 L 806.88,720.00 L 799.12,733.75 L 793.24,747.50 L 789.58,761.25 L 788.33,775.00 L 789.58,788.75 L 793.24,802.50 L 799.12,816.25 L 806.88,830.00 L 816.11,843.75 L 826.29,857.50 L 836.86,871.25 L 847.24,885.00 L 856.85,898.75 L 865.15,912.50 L 871.70,926.25 L 876.13,940.00 L 878.19,953.75 L 877.78,967.50 L 874.91,981.25 L 869.74,995.00 L 862.56,1008.75 L 853.76,1022.50 L 843.84,1036.25 L 833.33,1050.00" fill="none" stroke="black" stroke-width="1.5" stroke-linecap="round" stroke-linejoin="round"/>
</svg>